{"title":"Jurassic World (2015) 720p BDrip x264 Hi-En AAC 5.1 Subs -DDR","uid":15585104,"size":2208045118,"categoryP":"video","categoryS":"hd___movies","magnet":"?xt=urn:btih:da3e125903f73ae07c500b9e70a42a4901cf7b64&amp;dn=Jurassic+World+%282015%29+720p+BDrip+x264+Hi-En+AAC+5.1+Subs+-DDR&amp;tr=udp%3A%2F%2Ftracker.leechers-paradise.org%3A6969&amp;tr=udp%3A%2F%2Fzer0day.ch%3A1337&amp;tr=udp%3A%2F%2Fopen.demonii.com%3A1337&amp;tr=udp%3A%2F%2Ftracker.coppersurfer.tk%3A6969&amp;tr=udp%3A%2F%2Fexodus.desync.com%3A6969","seeders":25,"leechers":16,"uploader":"SaM","files":3,"time":1471455982,"description":"720p Blu-ray x264\r\n\r\nHindi AAC 5.1 / English AAC 5.1\r\n\r\n\r\n\r\nEnglish Hearing Impaired Subtitle \r\n \nhttp://extraimago.com/image/wcyg \nhttp://extraimago.com/image/wcyX \nhttp://extraimago.com/image/wcyP \nhttp://extraimago.com/image/wcyG \nhttp://extraimago.com/image/wcyr \nhttp://extraimago.com/image/wcyp \nhttp://extraimago.com/image/wcyY \nhttp://extraimago.com/image/wcyC \nhttp://extraimago.com/image/wcyB \nhttp://extraimago.com/image/wcy4 \nhttp://extraimago.com/image/wcye \nhttp://extraimago.com/image/wcyZ \nhttp://extraimago.com/image/wcyK \nhttp://extraimago.com/image/wcyJ\r\n\r\nSpecs:\r\nSource: BD50 Blu-ray @ HDClub\r\n\r\nFormat : Matroska\r\nFile size : 2.04 GiB\r\nDuration : 2h 4mn\r\nOverall bit rate : 2 348 Kbps\r\n\r\nVideo\r\nFormat : AVC\r\nFormat/Info : Advanced Video Codec\r\nFormat profile :   \r\nFormat settings, CABAC : Yes\r\nFormat settings, ReFrames : 10 frames\r\nCodec ID : V_MPEG4/ISO/AVC\r\nDuration : 2h 4mn\r\nBit rate : 1 959 Kbps\r\nWidth : 1 280 pixels\r\nHeight : 640 pixels\r\nDisplay aspect ratio : 2.000\r\nFrame rate mode : Constant\r\nFrame rate : 23.976 (24000/1001) fps\r\nColor space : YUV\r\nChroma subsampling : 4:2:0\r\nBit depth : 8 bits\r\nScan type : Progressive\r\nBits/(Pixel*Frame) : 0.100\r\nStream size : 1.70 GiB (83%)\r\n\r\nAudio #1\r\nFormat : AAC\r\nFormat/Info : Advanced Audio Codec\r\nFormat profile : LC\r\nCodec ID : A_AAC\r\nDuration : 2h 4mn\r\nBit rate : 192 Kbps\r\nChannel(s) : 6 channels\r\nChannel positions : Front: L C R, Side: L R, LFE\r\nSampling rate : 48.0 KHz\r\nFrame rate : 46.875 fps (1024 spf)\r\nCompression mode : Lossy\r\nDelay relative to video : 9ms\r\nStream size : 170 MiB (8%)\r\nLanguage : Hindi\r\nDefault : Yes\r\nForced : No\r\n\r\nAudio #2\r\nID : 3\r\nFormat : AAC\r\nFormat/Info : Advanced Audio Codec\r\nFormat profile : LC\r\nCodec ID : A_AAC\r\nDuration : 2h 4mn\r\nBit rate : 192 Kbps\r\nChannel(s) : 6 channels\r\nChannel positions : Front: L C R, Side: L R, LFE\r\nSampling rate : 48.0 KHz\r\nFrame rate : 46.875 fps (1024 spf)\r\nCompression mode : Lossy\r\nDelay relative to video : 9ms\r\nStream size : 170 MiB (8%)\r\nLanguage : English\r\nDefault : No\r\nForced : No\r\n\r\nSAMPLE Included","torrent":{"xt":"urn:btih:da3e125903f73ae07c500b9e70a42a4901cf7b64","amp;dn":"Jurassic+World+%282015%29+720p+BDrip+x264+Hi-En+AAC+5.1+Subs+-DDR","amp;tr":["udp%3A%2F%2Ftracker.leechers-paradise.org%3A6969","udp%3A%2F%2Fzer0day.ch%3A1337","udp%3A%2F%2Fopen.demonii.com%3A1337","udp%3A%2F%2Ftracker.coppersurfer.tk%3A6969","udp%3A%2F%2Fexodus.desync.com%3A6969"],"infoHash":"da3e125903f73ae07c500b9e70a42a4901cf7b64","infoHashBuffer":{"type":"Buffer","data":[218,62,18,89,3,247,58,224,124,80,11,158,112,164,42,73,1,207,123,100]},"announce":[],"urlList":[]}}